<?xml version="1.0" standalone="no"?>
<!DOCTYPE svg PUBLIC "-//W3C//DTD SVG 20010904//EN"
 "http://www.w3.org/TR/2001/REC-SVG-20010904/DTD/svg10.dtd">
<svg version="1.0" xmlns="http://www.w3.org/2000/svg"
 width="259.000000pt" height="259.000000pt" viewBox="0 0 259.000000 259.000000"
 preserveAspectRatio="xMidYMid meet">
<metadata>
Created by potrace 1.14, written by Peter Selinger 2001-2017
</metadata>
<g transform="translate(0.000000,259.000000) scale(0.100000,-0.100000)"
fill="#000000" stroke="none">
<path d="M1135 2579 c-22 -4 -53 -10 -70 -13 -175 -32 -367 -124 -535 -255
-59 -46 -228 -215 -265 -266 -17 -22 -32 -42 -35 -45 -4 -3 -21 -26 -39 -51
-38 -54 -49 -111 -29 -156 17 -42 958 -990 1006 -1015 68 -34 128 -18 179 49
22 29 28 46 27 88 0 30 -7 60 -16 74 -9 12 -206 214 -438 447 l-422 425 23 27
c186 207 359 320 579 378 46 13 102 18 195 17 111 0 143 -4 218 -27 221 -66
406 -201 585 -426 87 -109 94 -115 143 -128 68 -17 159 31 174 93 18 74 10 98
-69 202 -246 324 -550 525 -876 577 -90 15 -268 18 -335 5z"/>
<path d="M1290 1819 c-76 -31 -116 -132 -79 -202 8 -14 204 -217 437 -450 232
-234 422 -429 422 -435 0 -9 -133 -147 -186 -193 -165 -141 -394 -232 -584
-232 -311 0 -603 164 -838 473 -68 89 -76 96 -125 111 -107 34 -216 -82 -179
-191 29 -83 242 -317 396 -435 218 -166 480 -259 731 -259 356 1 665 150 956
461 86 92 170 208 179 248 17 76 4 94 -240 340 -659 664 -753 757 -776 765
-32 12 -81 12 -114 -1z"/>
</g>
</svg>
