<svg width="1683" height="265" viewBox="0 0 1683 265" fill="none" xmlns="http://www.w3.org/2000/svg">
<path d="M137.409 67.3H4.525V102.143H50.0767V194H91.8575V102.143H137.409V67.3ZM147.216 194H188.997V67.3H147.216V194ZM340.867 129.142C340.867 90.0758 312.661 63.0767 269.07 63.0767C225.479 63.0767 197.274 90.0758 197.274 130.65C197.274 171.224 225.479 198.223 269.07 198.223C278.724 198.223 288.075 195.961 296.069 192.793L316.734 211.648C325.482 204.408 333.024 197.017 339.962 187.967L323.37 171.073C334.079 160.213 340.867 146.638 340.867 129.142ZM238.753 130.65C238.753 110.589 252.479 99.1258 269.07 99.1258C285.662 99.1258 299.388 110.589 299.388 130.65C299.388 150.711 285.662 162.174 269.07 162.174C252.479 162.174 238.753 150.711 238.753 130.65ZM349.25 194H389.975V125.522H393.746L436.884 194H483.793V67.3H443.068V135.778H439.297L397.215 67.3H349.25V194ZM494.368 194H536.149V67.3H494.368V194ZM650.763 194H693.902L647.294 67.3H588.771L542.163 194H585.302L590.883 177.257H645.183L650.763 194ZM601.139 146.337L614.413 106.517H621.653L634.926 146.337H601.139Z" fill="#2E54FF"/>
<path d="M963.279 194H1005.06V166.247H1035.38C1069.77 166.247 1090.28 150.862 1090.28 116.773C1090.28 82.685 1069.77 67.3 1035.23 67.3H963.279V194ZM1005.06 131.555V101.992H1031.76C1041.71 101.992 1048.2 106.969 1048.2 116.773C1048.2 126.577 1041.71 131.555 1031.61 131.555H1005.06ZM1187.55 194H1230.69L1184.08 67.3H1125.56L1078.95 194H1122.09L1127.67 177.257H1181.97L1187.55 194ZM1137.93 146.337L1151.2 106.517H1158.44L1171.71 146.337H1137.93ZM1293.63 198.223C1324.86 198.223 1356.23 184.648 1360.45 141.51H1320.63C1317.16 155.688 1307.36 162.174 1293.63 162.174C1277.04 162.174 1263.92 149.806 1263.92 130.65C1263.92 111.494 1277.04 99.1258 1293.63 99.1258C1307.36 99.1258 1317.16 105.612 1320.63 119.488H1360.45C1356.23 76.6517 1324.56 63.0767 1293.63 63.0767C1250.95 63.0767 1222.44 90.0758 1222.44 130.65C1222.44 171.224 1250.95 198.223 1293.63 198.223ZM1368.76 194H1482.94V160.515H1410.54V144.376H1480.23V116.924H1410.54V100.785H1482.94V67.3H1368.76V194Z" fill="#2E54FF"/>
<path d="M935.723 89.7754C936.373 86.0177 935.499 82.1136 933.29 79.4296C904.59 38.3881 866.688 16.0374 826.91 16.0374C786.3 16.0374 748.33 38.3881 719.645 79.4296C717.69 81.772 716.762 85.1393 717.055 88.5065C717.348 91.9226 718.814 95.0946 721.209 97.4859L810.49 186.987C813.178 189.719 816.843 191.232 820.703 191.671C824.515 191.671 828.18 189.719 830.917 187.035C833.604 184.302 835.168 180.642 835.168 176.836C835.168 172.981 833.653 169.321 830.966 166.637L750.627 86.0665C772.471 59.4213 799.104 44.9274 826.91 44.9274C857.012 44.9274 886.626 62.9349 909.662 95.6315C911.871 98.7547 915.238 100.902 919.016 101.536C922.793 102.22 926.678 101.341 929.81 99.0963C932.943 96.9003 935.069 93.533 935.723 89.7754ZM717.201 190.305C716.566 194.063 717.446 197.918 719.645 201.09C748.33 241.658 786.3 264.023 826.91 264.023C866.688 264.023 904.59 241.658 933.29 201.09C935.249 198.308 936.163 194.941 935.875 191.525C935.587 188.158 934.116 184.986 931.716 182.594L842.45 93.0938C839.762 90.361 836.097 88.8481 832.236 88.8481C828.864 88.7993 824.759 90.3121 822.023 93.045C819.335 95.729 817.771 99.3891 817.771 103.244C817.771 107.051 819.286 111.15 821.974 113.444L902.361 194.014C880.273 220.659 853.885 235.138 826.91 235.138C795.927 235.138 766.314 217.145 743.297 184.839C741.049 181.277 737.726 179.178 733.914 178.495C730.151 177.861 726.242 178.739 723.114 180.935C719.987 183.131 717.886 186.499 717.201 190.305Z" fill="#2E54FF"/>
<path d="M935.723 89.7754C936.373 86.0177 935.499 82.1136 933.29 79.4296C904.59 38.3881 866.688 16.0374 826.91 16.0374C786.3 16.0374 748.33 38.3881 719.645 79.4296C717.69 81.772 716.762 85.1393 717.055 88.5065C717.348 91.9226 718.814 95.0946 721.209 97.4859L810.49 186.987C813.178 189.719 816.843 191.232 820.703 191.671C824.515 191.671 828.18 189.719 830.917 187.035C833.604 184.302 835.168 180.642 835.168 176.836C835.168 172.981 833.653 169.321 830.966 166.637L750.627 86.0665C772.471 59.4213 799.104 44.9274 826.91 44.9274C857.012 44.9274 886.626 62.9349 909.662 95.6315C911.871 98.7547 915.238 100.902 919.016 101.536C922.793 102.22 926.678 101.341 929.81 99.0963C932.943 96.9003 935.069 93.533 935.723 89.7754ZM717.201 190.305C716.566 194.063 717.446 197.918 719.645 201.09C748.33 241.658 786.3 264.023 826.91 264.023C866.688 264.023 904.59 241.658 933.29 201.09C935.249 198.308 936.163 194.941 935.875 191.525C935.587 188.158 934.116 184.986 931.716 182.594L842.45 93.0938C839.762 90.361 836.097 88.8481 832.236 88.8481C828.864 88.7993 824.759 90.3121 822.023 93.045C819.335 95.729 817.771 99.3891 817.771 103.244C817.771 107.051 819.286 111.15 821.974 113.444L902.361 194.014C880.273 220.659 853.885 235.138 826.91 235.138C795.927 235.138 766.314 217.145 743.297 184.839C741.049 181.277 737.726 179.178 733.914 178.495C730.151 177.861 726.242 178.739 723.114 180.935C719.987 183.131 717.886 186.499 717.201 190.305Z" stroke="white"/>
</svg>
