<svg width="1784" height="644" viewBox="0 0 1784 644" fill="none" xmlns="http://www.w3.org/2000/svg">
<path d="M235.25 134V202.25H161.75V344H79.75V202.25H6.25V134H235.25Z" fill="#0000FE"/>
<path d="M621.5 235.75C621.5 261.75 611.833 284.417 592.5 303.75L619.75 331.5C607.417 347.333 592.25 362.833 574.25 378L537.5 344.75C524.667 348.917 512.25 351 500.25 351C462.917 351 433.333 340.917 411.5 320.75C389.667 300.417 378.75 273.167 378.75 239C378.75 204.833 389.667 177.667 411.5 157.5C433.333 137.167 462.917 127 500.25 127C537.25 127 566.667 137 588.5 157C610.5 176.833 621.5 203.083 621.5 235.75ZM460.5 239C460.5 252.167 464.333 262.333 472 269.5C479.667 276.667 489.083 280.25 500.25 280.25C511.417 280.25 520.833 276.667 528.5 269.5C536.167 262.333 540 252.167 540 239C540 225.667 536.167 215.5 528.5 208.5C520.833 201.333 511.417 197.75 500.25 197.75C488.917 197.75 479.417 201.333 471.75 208.5C464.25 215.5 460.5 225.667 460.5 239ZM632.695 344V134H726.695L777.945 229H785.195V134H865.195V344H773.445L720.195 249H712.695V344H632.695Z" fill="#0000FE"/>
<path d="M366.5 570V360H492C555 360 586.5 388.417 586.5 445.25C586.5 502.25 555.167 530.75 492.5 530.75H448.75V570H366.5ZM448.75 462.75H484.25C490.083 462.75 494.75 461.25 498.25 458.25C501.75 455.25 503.5 450.917 503.5 445.25C503.5 439.583 501.75 435.333 498.25 432.5C494.917 429.5 490.417 428 484.75 428H448.75V462.75Z" fill="#0000FE"/>
<path d="M1259.75 570L1253 547.25H1172.25L1165.25 570H558L633 360H1270L1344.5 570H1259.75ZM1190.5 487H1234.75L1219.5 436.75H1205.75L1190.5 487Z" fill="#0000FE"/>
<path d="M245.5 577C205.833 576.833 177.25 570.5 159.75 558C142.25 545.5 134.167 524.917 135.5 496.25H209.25C209.25 507.417 221.333 513.083 245.5 513.25C256 513.417 263.75 512.583 268.75 510.75C273.917 508.75 276.5 506.25 276.5 503.25V502.5C276.5 502.167 276.5 501.917 276.5 501.75C276.5 501.583 276.417 501.25 276.25 500.75C276.25 500.25 276.167 499.833 276 499.5C275.833 499.167 275.583 498.75 275.25 498.25C274.917 497.75 274.417 497.333 273.75 497C273.25 496.5 272.583 496.083 271.75 495.75C271.083 495.25 270.167 494.833 269 494.5C268 494.167 266.75 493.833 265.25 493.5C263.917 493.167 262.417 492.917 260.75 492.75L233 488.5C230.5 488.167 226.417 487.667 220.75 487C215.25 486.167 211 485.5 208 485C205 484.5 200.833 483.75 195.5 482.75C190.167 481.75 185.917 480.75 182.75 479.75C179.75 478.75 176 477.333 171.5 475.5C167.167 473.667 163.667 471.667 161 469.5C158.5 467.333 155.75 464.75 152.75 461.75C149.75 458.583 147.417 455.167 145.75 451.5C144.083 447.833 142.667 443.583 141.5 438.75C140.5 433.75 140 428.333 140 422.5C140 400.5 148.833 383.417 166.5 371.25C184.333 359.083 210.833 353 246 353C263.167 353 277.917 354.167 290.25 356.5C302.583 358.833 313.75 362.917 323.75 368.75C333.75 374.417 341.083 382.667 345.75 393.5C350.583 404.167 352.75 417.417 352.25 433.25H279C276.833 422.083 265.25 416.5 244.25 416.5C227.417 416.5 219 419.917 219 426.75C219 427.583 219 428.25 219 428.75C219.167 429.25 219.5 430.167 220 431.5C220.667 432.833 221.917 433.917 223.75 434.75C225.583 435.583 227.917 436.167 230.75 436.5L252.75 440C256.75 440.667 262.333 441.5 269.5 442.5C276.667 443.333 282.667 444.083 287.5 444.75C292.333 445.25 298.083 446.25 304.75 447.75C311.417 449.25 317 450.917 321.5 452.75C326.167 454.417 331 456.917 336 460.25C341 463.417 345 467.083 348 471.25C351 475.25 353.417 480.333 355.25 486.5C357.25 492.5 358.25 499.25 358.25 506.75C358.25 530.917 349 548.75 330.5 560.25C312 571.75 283.667 577.333 245.5 577Z" fill="#0000FE"/>
<path d="M1443.75 564C1407.42 564 1378.33 553.833 1356.5 533.5C1334.67 513.167 1323.75 486 1323.75 452C1323.75 418 1334.67 390.833 1356.5 370.5C1378.33 350.167 1407.42 340 1443.75 340C1455.25 340 1466.08 341 1476.25 343C1486.58 345 1496.67 348.5 1506.5 353.5C1516.5 358.333 1525.08 364.5 1532.25 372C1539.58 379.5 1545.67 389.167 1550.5 401C1555.33 412.667 1558.25 426 1559.25 441H1481.25C1477.58 420.833 1465.08 410.75 1443.75 410.75C1432.92 410.75 1423.83 414.5 1416.5 422C1409.17 429.333 1405.5 439.333 1405.5 452C1405.5 464.667 1409.17 474.75 1416.5 482.25C1423.83 489.583 1432.92 493.25 1443.75 493.25C1465.08 493.25 1477.58 482.917 1481.25 462.25H1559.25C1558.08 480.917 1554 497.083 1547 510.75C1540.17 524.417 1531.17 535 1520 542.5C1509 550 1497.17 555.417 1484.5 558.75C1472 562.25 1458.42 564 1443.75 564ZM1570.37 557V347H1767.87V412.25H1652.62V426.25H1763.37V478H1652.62V491.75H1767.87V557H1570.37Z" fill="#0000FE"/>
<path d="M247 297C247 241.772 291.772 197 347 197H365V344H247V297Z" fill="#0000FE"/>
<path d="M247 134C247 168.794 275.206 197 310 197H365V134H247Z" fill="#0000FE"/>
<path d="M883 307C883 251.772 927.772 207 983 207H1001V344H883V307Z" fill="#0000FE"/>
<circle cx="306" cy="59" r="59" fill="#0000FE"/>
<circle cx="942" cy="145" r="59" fill="#0000FE"/>
<path d="M1192.25 344L1185.5 321.25H1104.75L1097.75 344H1013L1087.5 134H1202.5L1277 344H1192.25ZM1123 261H1167.25L1152 210.75H1138.25L1123 261Z" fill="#0000FE"/>
</svg>
